<svg version="1.2" xmlns="http://www.w3.org/2000/svg" viewBox="0 0 488 488" width="488" height="488">
	<title>telephone-svg</title>
	<style>
		.s0 { fill: #f50f60 } 
	</style>
	<g id="Layer">
		<g id="Layer">
			<path id="Layer" fill-rule="evenodd" class="s0" d="m254.8 460.8c-62.2-30.1-116.6-72.8-161.9-126.8-37.2-44.8-62.3-86.7-79-131.8-10.8-29.2-15-53.4-13.2-76.2 1.6-18.3 9-34.1 22-47.1l35.5-35.4c10.2-9.8 22-14.9 34.2-14.9 12.3 0 23.9 5.1 33.7 14.9 6.5 6 13 12.7 19.3 19.1 3.2 3.2 6.4 6.5 9.7 9.8l28.3 28.3c21.4 21.3 21.4 47.8 0 69.2-3 3-5.9 6-8.8 8.9-7.9 8.1-16.1 16.4-24.9 24.4 6.3 14.6 15.2 28.8 28.7 45.8 26.8 32.9 54.8 58.5 85.7 78.1 3.1 1.9 6.6 3.7 10.4 5.6 3 1.5 6.1 3 9.1 4.7l33.7-33.7c10.1-10.1 21.9-15.4 34.2-15.4 12.4 0 24.1 5.4 33.9 15.6l57 57c20.6 20.6 20.7 47.7 0.2 69.1-4.3 4.6-8.9 9-13.4 13.3-6.6 6.3-12.8 12.3-18.3 18.9-0.1 0.1-0.3 0.3-0.4 0.4-15.4 16.7-35 25.2-58.5 25.2-2.2 0-4.3-0.1-6.5-0.2-35.3-2.3-67-15.5-90.7-26.8zm10.9-22.1c21.7 10.3 50.5 22.4 81.6 24.4 1.6 0.1 3.3 0.2 4.9 0.2 16.7 0 29.5-5.4 40.3-17 6.3-7.5 13.2-14.2 19.9-20.6 4.4-4.3 8.6-8.3 12.6-12.6 7.9-8.3 14.3-20.9 0.3-34.9l-57.2-57.2c-3.7-3.8-9.4-8.2-16.4-8.2-5.7 0-11.5 2.8-16.9 8.2l-35.5 35.5c-1.6 1.7-6.6 6.7-14.5 6.7-3.2 0-6.3-0.8-9.5-2.4-0.4-0.2-0.7-0.4-1.1-0.6-3.1-1.9-6.6-3.7-10.4-5.6-4.2-2.1-8.5-4.3-12.6-6.9-33.2-21.1-63.2-48.4-91.7-83.5-15.8-20-26.1-36.7-33.4-54.3-0.1-0.3-0.2-0.5-0.3-0.8-2-5.8-3.2-13.6 4.9-21.7 0.2-0.2 0.3-0.3 0.5-0.5 9.1-8.1 17.3-16.5 26.1-25.4 2.9-3 5.9-6 8.9-9 11.6-11.6 11.6-23 0-34.6l-28.3-28.3c-3.4-3.3-6.7-6.7-9.9-10-6.4-6.5-12.5-12.7-18.8-18.6-5.4-5.3-11-8-16.7-8-5.8 0-11.7 2.7-17.1 7.9l-35.3 35.3c-9 8.9-13.8 19.3-14.9 31.8-1.5 19.3 2.1 39.6 11.8 65.7 15.7 42.4 39.4 82 74.8 124.6 43 51.4 94.7 91.9 153.9 120.4z"/>
			<path id="Layer" class="s0" d="m268.1 89.3c-6.7-1.1-13 3.4-14.1 10-1.1 6.7 3.4 13 10 14.1 27.5 4.7 52.5 17.7 72.5 37.6 19.9 19.9 32.9 45 37.6 72.5 1 6 6.2 10.2 12.1 10.2 0.7 0 1.4-0.1 2.1-0.2 6.7-1.1 11.2-7.5 10-14.1-5.5-32.5-20.9-62.2-44.4-85.7-23.7-23.6-53.3-38.9-85.8-44.4z"/>
			<path id="Layer" class="s0" d="m475.2 229.5c0.7 0 1.4-0.1 2.1-0.2 6.7-1.1 11.2-7.5 10-14.1-9.1-53.8-34.5-102.7-73.4-141.6-39-38.9-87.9-64.3-141.7-73.4-6.7-1.1-13 3.4-14.1 10-1.1 6.7 3.4 13 10 14.1 48.7 8.3 93.1 31.3 128.4 66.6 35.3 35.3 58.3 79.7 66.6 128.4 1 6 6.2 10.2 12.1 10.2z"/>
		</g>
	</g>
</svg>